<svg width="78" height="37" viewBox="0 0 78 37" fill="none" xmlns="http://www.w3.org/2000/svg">
<g filter="url(#filter0_d_9_257)">
<path fill-rule="evenodd" clip-rule="evenodd" d="M35.9319 22.6409V14.2745H40.2499C42.0194 14.2745 43.5128 13.6816 44.7303 12.5123L45.0225 12.2159C47.2465 9.7949 47.1004 6.02346 44.7303 3.78365C43.5453 2.59787 41.922 1.95557 40.2499 1.98851H33.3184V22.6409H35.9319ZM35.9323 11.7376V4.52406H40.3159C41.2576 4.52406 42.1505 4.88638 42.8162 5.54515C44.2287 6.92857 44.2611 9.23426 42.8974 10.6671C42.2317 11.3753 41.29 11.7705 40.3159 11.7376H35.9323ZM57.2136 9.61433C56.0935 8.57677 54.5676 8.04976 52.6359 8.04976C50.1522 8.04976 48.2854 8.97203 47.0517 10.8001L49.3568 12.2659C50.2009 11.0142 51.3534 10.3884 52.8144 10.3884C53.7397 10.3884 54.6325 10.7342 55.3306 11.3601C56.0124 11.953 56.402 12.8093 56.402 13.7152V14.3245C55.3955 13.7646 54.1293 13.4681 52.5709 13.4681C50.7528 13.4681 49.2918 13.8963 48.2042 14.7692C47.1166 15.642 46.5647 16.7949 46.5647 18.2606C46.5322 19.5946 47.1004 20.8628 48.1068 21.7192C49.1295 22.6414 50.4282 23.1026 51.9541 23.1026C53.756 23.1026 55.1845 22.2956 56.2721 20.6816H56.3857V22.6414H58.8856V13.9293C58.8856 12.1012 58.3337 10.6519 57.2136 9.61433ZM50.1202 20.0384C49.5844 19.6431 49.2597 19.0008 49.2597 18.3091C49.2597 17.5351 49.6168 16.8928 50.315 16.3822C51.0294 15.8717 51.9223 15.6082 52.9776 15.6082C54.4389 15.5917 55.5754 15.9211 56.3871 16.5798C56.3871 17.6998 55.9488 18.6714 55.0883 19.4949C54.309 20.2854 53.2536 20.7301 52.1496 20.7301C51.419 20.7466 50.7046 20.4995 50.1202 20.0384ZM64.5024 28.8501L73.2359 8.51073H70.3951L66.353 18.6557H66.3043L62.1648 8.51073H59.324L65.0543 21.7355L61.8077 28.8501H64.5024Z" fill="#3C4043"/>
<path d="M26.909 12.4629C26.909 11.6559 26.8441 10.8489 26.7142 10.0583H15.6919V14.6203H22.0066C21.7469 16.0861 20.9027 17.4036 19.669 18.2271V21.1915H23.4351C25.6428 19.1329 26.909 16.0861 26.909 12.4629Z" fill="#4285F4"/>
<path d="M15.6923 24.0567C18.8416 24.0567 21.5038 23.0027 23.4356 21.1911L19.6695 18.2266C18.6143 18.9513 17.2669 19.363 15.6923 19.363C12.6405 19.363 10.0594 17.2714 9.13412 14.4717H5.25439V17.5349C7.23484 21.5369 11.2769 24.0567 15.6923 24.0567Z" fill="#34A853"/>
<path d="M9.13456 14.4722C8.64749 13.0064 8.64749 11.4089 9.13456 9.92668V6.87988H5.25421C3.58193 10.2231 3.58193 14.1757 5.25421 17.519L9.13456 14.4722Z" fill="#FBBC04"/>
<path d="M15.6924 5.0355C17.3644 5.00256 18.9715 5.64486 20.1727 6.81417L23.5168 3.42152C21.3902 1.41228 18.5981 0.308843 15.6924 0.341781C11.2769 0.341781 7.23485 2.87804 5.25439 6.88005L9.13414 9.94332C10.0594 7.12709 12.6405 5.0355 15.6924 5.0355Z" fill="#EA4335"/>
</g>
<defs>
<filter id="filter0_d_9_257" x="0" y="0.341064" width="77.2358" height="36.509" filterUnits="userSpaceOnUse" color-interpolation-filters="sRGB">
<feFlood flood-opacity="0" result="BackgroundImageFix"/>
<feColorMatrix in="SourceAlpha" type="matrix" values="0 0 0 0 0 0 0 0 0 0 0 0 0 0 0 0 0 0 127 0" result="hardAlpha"/>
<feOffset dy="4"/>
<feGaussianBlur stdDeviation="2"/>
<feComposite in2="hardAlpha" operator="out"/>
<feColorMatrix type="matrix" values="0 0 0 0 0 0 0 0 0 0 0 0 0 0 0 0 0 0 0.25 0"/>
<feBlend mode="normal" in2="BackgroundImageFix" result="effect1_dropShadow_9_257"/>
<feBlend mode="normal" in="SourceGraphic" in2="effect1_dropShadow_9_257" result="shape"/>
</filter>
</defs>
</svg>
