<svg width="150" height="128" viewBox="0 0 150 128" fill="none" xmlns="http://www.w3.org/2000/svg">
<g clip-path="url(#clip0_103_839)">
<path d="M136.233 24.7083C121.438 16.1679 102.519 21.2428 93.9693 36.0378L72.4172 73.3723C66.181 84.1533 74.2092 87.9205 83.1613 93.2879L103.9 105.257C110.922 109.308 119.893 106.903 123.943 99.8899L146.099 61.5218C153.542 48.6289 149.126 32.1517 136.233 24.7083Z" fill="#EA4335"/>
<path d="M111.846 40.1612L91.1079 28.1919C79.6598 21.8369 73.1767 21.4162 68.4765 28.8869L37.8903 81.858C29.3497 96.6437 34.4338 115.553 49.2195 124.076C62.1124 131.519 78.59 127.102 86.0331 114.209L117.205 60.2139C121.274 53.1915 118.869 44.2121 111.846 40.1612Z" fill="#FBBC04"/>
<path d="M115.838 12.9309L101.272 4.51844C85.1601 -4.78096 64.5588 0.732836 55.2594 16.8445L27.5257 64.8775C23.4292 71.9641 25.8615 81.0348 32.9482 85.1222L49.2611 94.5405C57.3167 99.195 67.6127 96.4333 72.2671 88.3774L103.951 33.5048C110.516 22.1388 125.046 18.2435 136.412 24.8089L115.838 12.9309Z" fill="#34A853"/>
<path d="M59.1992 30.5874L43.4534 21.5166C36.4307 17.475 27.4606 19.8707 23.4098 26.875L4.51845 59.519C-4.78097 75.5848 0.73284 96.1406 16.8445 105.413L28.8322 112.316L43.371 120.692L49.6804 124.322C38.479 116.824 34.922 101.801 41.7708 89.9682L46.6628 81.5192L64.5758 50.5669C68.6175 43.5811 66.2127 34.629 59.1992 30.5874Z" fill="#4285F4"/>
</g>
<defs>
<clipPath id="clip0_103_839">
<rect width="150" height="127.734" fill="white"/>
</clipPath>
</defs>
</svg>
