<svg width="20" height="20" viewBox="0 0 20 20" fill="none" xmlns="http://www.w3.org/2000/svg">
<g clip-path="url(#clip0_56_253)">
<path d="M18.2549 16.5666L18.7143 16.5292V16.0682V1.78564V1.24197L18.1725 1.28739L17.6282 1.33303C17.6281 1.33304 17.628 1.33305 17.6279 1.33305C15.3905 1.51803 13.1959 2.05287 11.1242 2.91831C11.1241 2.91838 11.1239 2.91846 11.1237 2.91853L10.1654 3.3164L9.85718 3.44439V3.77818V18.0043V18.7535L10.5491 18.466L11.2477 18.1756L11.2478 18.1755C13.2937 17.3243 15.4598 16.7977 17.6681 16.6143C17.6682 16.6143 17.6684 16.6143 17.6685 16.6143L18.2549 16.5666Z" fill="white" stroke="#2571F0"/>
<path d="M0.541773 1.28739L0 1.24197V1.78564V16.0693V16.5286L0.457649 16.5675L1.09154 16.6214L1.09223 16.6214C3.2989 16.8059 5.46299 17.3357 7.50526 18.1915L7.50646 18.192L8.16512 18.4659L8.85714 18.7537V18.0043V3.77818V3.44442L8.54891 3.31642L7.59166 2.91888C7.5915 2.91882 7.59135 2.91875 7.59119 2.91869C5.51937 2.05306 3.32441 1.51804 1.08643 1.33306C1.08633 1.33305 1.08624 1.33304 1.08614 1.33303L0.541773 1.28739Z" fill="#2571F0" stroke="#2571F0"/>
</g>
<defs>
<clipPath id="clip0_56_253">
<rect width="20" height="20" fill="white"/>
</clipPath>
</defs>
</svg>
