<svg width="27" height="27" viewBox="0 0 27 27" fill="none" xmlns="http://www.w3.org/2000/svg">
<path d="M19 13C19 15.7614 16.7614 18 14 18C11.2386 18 9 15.7614 9 13C9 10.2386 11.2386 8 14 8C16.7614 8 19 10.2386 19 13ZM11.1625 13C11.1625 14.5671 12.4329 15.8375 14 15.8375C15.5671 15.8375 16.8375 14.5671 16.8375 13C16.8375 11.4329 15.5671 10.1625 14 10.1625C12.4329 10.1625 11.1625 11.4329 11.1625 13Z" fill="#2571F0"/>
<path d="M20.8467 8.99566C20.8467 8.65959 20.5767 8.38746 20.2432 8.38746C19.9101 8.38746 19.639 8.65924 19.6397 8.99566C19.6397 9.33173 19.9097 9.60385 20.2432 9.60385C20.5767 9.60385 20.8467 9.33173 20.8467 8.99566Z" fill="#2571F0"/>
<path d="M18.5158 6.82458C18.5158 6.48886 18.2457 6.21639 17.9122 6.21639C17.5787 6.21639 17.3087 6.48886 17.3087 6.82458C17.3087 7.1603 17.5787 7.43277 17.9122 7.43277C18.2457 7.43277 18.5158 7.1603 18.5158 6.82458Z" fill="#2571F0"/>
<path d="M14.776 5.60819C14.776 5.27247 14.5059 5 14.1724 5C13.8389 5 13.5689 5.27247 13.5689 5.60819C13.5689 5.94392 13.8389 6.21639 14.1724 6.21639C14.5059 6.21639 14.776 5.94392 14.776 5.60819Z" fill="#2571F0"/>
<path d="M10.8424 6.77036C10.8424 6.43464 10.5723 6.16217 10.2388 6.16217C9.90533 6.16217 9.6353 6.43464 9.6353 6.77036C9.6353 7.10609 9.90533 7.37856 10.2388 7.37856C10.5723 7.37856 10.8424 7.10609 10.8424 6.77036Z" fill="#2571F0"/>
<path d="M8.41411 9.27195C8.41411 8.93588 8.14407 8.66376 7.81058 8.66376C7.47709 8.66376 7.20705 8.93588 7.20705 9.27195C7.20705 9.60802 7.47709 9.88014 7.81058 9.88014C8.14407 9.88014 8.41411 9.60802 8.41411 9.27195Z" fill="#2571F0"/>
<path d="M6 13.0407C6 13.3767 6.27003 13.6489 6.60353 13.6489C6.93667 13.6489 7.20705 13.3764 7.20705 13.0407C7.20705 12.7046 6.93702 12.4325 6.60353 12.4325C6.27003 12.4325 6 12.7046 6 13.0407Z" fill="#2571F0"/>
<path d="M7.15291 17.0047C7.15291 17.3408 7.42294 17.6129 7.75643 17.6129C8.08993 17.6129 8.35996 17.3408 8.35996 17.0047C8.35996 16.6686 8.08993 16.3965 7.75643 16.3965C7.42294 16.3965 7.15291 16.6686 7.15291 17.0047Z" fill="#2571F0"/>
<path d="M9.48424 19.1754C9.48424 19.5115 9.75428 19.7836 10.0878 19.7836C10.4213 19.7836 10.6913 19.5115 10.6913 19.1754C10.6913 18.8394 10.4213 18.5672 10.0878 18.5672C9.75428 18.5672 9.48424 18.8394 9.48424 19.1754Z" fill="#2571F0"/>
<path d="M13.224 20.3918C13.224 20.7279 13.4941 21 13.8276 21C14.1611 21 14.4311 20.7279 14.4311 20.3918C14.4311 20.0557 14.1611 19.7836 13.8276 19.7836C13.4941 19.7836 13.224 20.0557 13.224 20.3918Z" fill="#2571F0"/>
<path d="M17.1576 19.2296C17.1576 19.5654 17.4277 19.8378 17.7612 19.8378C18.0947 19.8378 18.3647 19.5657 18.3647 19.2296C18.3647 18.8936 18.0947 18.6214 17.7612 18.6214C17.4277 18.6214 17.1576 18.8936 17.1576 19.2296Z" fill="#2571F0"/>
<path d="M19.5859 16.7284C19.5859 17.0645 19.8552 17.3366 20.1891 17.3366C20.5226 17.3366 20.7926 17.0641 20.7929 16.7284C20.7929 16.3923 20.5229 16.1202 20.1894 16.1202C19.8552 16.1202 19.5859 16.3923 19.5859 16.7284Z" fill="#2571F0"/>
<path d="M20.7929 12.9597C20.7929 13.2958 21.063 13.5679 21.3965 13.5679C21.73 13.5679 22 13.2958 22 12.9597C22 12.6236 21.73 12.3515 21.3965 12.3515C21.063 12.3515 20.7929 12.6236 20.7929 12.9597Z" fill="#2571F0"/>
</svg>
