<svg width="15" height="15" viewBox="0 0 15 15" fill="none" xmlns="http://www.w3.org/2000/svg">
<path d="M13.6999 14.3734L12.7872 4.20851C12.7623 3.93092 12.5296 3.71829 12.2509 3.71829H10.3686V2.86935C10.3686 1.28719 9.08152 0 7.49943 0C5.91741 0 4.63044 1.28719 4.63044 2.86935V3.71829H2.74685C2.46818 3.71829 2.23552 3.93092 2.21061 4.20851L1.29427 14.4134C1.28077 14.564 1.33116 14.7133 1.43317 14.8248C1.53518 14.9364 1.6794 14.9999 1.83051 14.9999H13.1673C13.1678 14.9999 13.1684 14.9999 13.1688 14.9999C13.4662 14.9999 13.7072 14.7589 13.7072 14.4615C13.7071 14.4316 13.7047 14.4021 13.6999 14.3734ZM5.70723 2.86935C5.70723 1.88093 6.51123 1.07679 7.4995 1.07679C8.48785 1.07679 9.29192 1.88093 9.29192 2.86935V3.71829H5.70723V2.86935ZM2.41944 13.9232L3.23909 4.79507H4.63044H4.98872C4.70158 4.79507 4.83489 4.79507 5.13229 4.79507C5.4297 4.79507 5.51931 4.79507 5.34765 4.79507H5.70723H9.29192H9.51123C9.69069 4.79507 9.50096 4.79507 9.79837 4.79507C10.0958 4.79507 10.0137 4.79507 10.1932 4.79507H10.3687H11.7588L12.5784 13.9232H2.41944Z" fill="#2571F0"/>
<path d="M10.6961 5.81459C10.6961 6.67133 10.3557 7.49299 9.74992 8.0988C9.14411 8.70461 8.32246 9.04495 7.46571 9.04495C6.60897 9.04495 5.78731 8.70461 5.1815 8.0988C4.57569 7.49299 4.23535 6.67133 4.23535 5.81459L5.04294 5.81459C5.04294 6.45715 5.2982 7.07339 5.75256 7.52775C6.20691 7.9821 6.82315 8.23736 7.46571 8.23736C8.10827 8.23736 8.72451 7.9821 9.17887 7.52775C9.63323 7.07339 9.88848 6.45715 9.88848 5.81459H10.6961Z" fill="#2571F0"/>
</svg>
