<svg width="18" height="18" viewBox="0 0 18 18" fill="none" xmlns="http://www.w3.org/2000/svg">
<path d="M8.99169 0.666748C4.39169 0.666748 0.666687 4.40008 0.666687 9.00008C0.666687 13.6001 4.39169 17.3334 8.99169 17.3334C13.6 17.3334 17.3334 13.6001 17.3334 9.00008C17.3334 4.40008 13.6 0.666748 8.99169 0.666748ZM14.7667 5.66675H12.3084C12.0417 4.62508 11.6584 3.62508 11.1584 2.70008C12.6917 3.22508 13.9667 4.29175 14.7667 5.66675ZM9.00002 2.36675C9.69169 3.36675 10.2334 4.47508 10.5917 5.66675H7.40836C7.76669 4.47508 8.30836 3.36675 9.00002 2.36675ZM2.55002 10.6667C2.41669 10.1334 2.33335 9.57508 2.33335 9.00008C2.33335 8.42508 2.41669 7.86675 2.55002 7.33342H5.36669C5.30002 7.88342 5.25002 8.43342 5.25002 9.00008C5.25002 9.56675 5.30002 10.1167 5.36669 10.6667H2.55002ZM3.23335 12.3334H5.69169C5.95835 13.3751 6.34169 14.3751 6.84169 15.3001C5.30835 14.7751 4.03335 13.7168 3.23335 12.3334ZM5.69169 5.66675H3.23335C4.03335 4.28342 5.30835 3.22508 6.84169 2.70008C6.34169 3.62508 5.95835 4.62508 5.69169 5.66675ZM9.00002 15.6334C8.30836 14.6334 7.76669 13.5251 7.40836 12.3334H10.5917C10.2334 13.5251 9.69169 14.6334 9.00002 15.6334ZM10.95 10.6667H7.05002C6.97502 10.1167 6.91669 9.56675 6.91669 9.00008C6.91669 8.43342 6.97502 7.87508 7.05002 7.33342H10.95C11.025 7.87508 11.0834 8.43342 11.0834 9.00008C11.0834 9.56675 11.025 10.1167 10.95 10.6667ZM11.1584 15.3001C11.6584 14.3751 12.0417 13.3751 12.3084 12.3334H14.7667C13.9667 13.7084 12.6917 14.7751 11.1584 15.3001ZM12.6334 10.6667C12.7 10.1167 12.75 9.56675 12.75 9.00008C12.75 8.43342 12.7 7.88342 12.6334 7.33342H15.45C15.5834 7.86675 15.6667 8.42508 15.6667 9.00008C15.6667 9.57508 15.5834 10.1334 15.45 10.6667H12.6334Z" fill="#2571F0"/>
</svg>
