<svg width="18" height="18" viewBox="0 0 18 18" fill="none" xmlns="http://www.w3.org/2000/svg">
<path d="M8.99996 0.666748C4.40746 0.666748 0.666626 4.40758 0.666626 9.00008C0.666626 13.5926 4.40746 17.3334 8.99996 17.3334C13.5925 17.3334 17.3333 13.5926 17.3333 9.00008C17.3333 4.40758 13.5925 0.666748 8.99996 0.666748ZM8.99996 2.33341C12.6917 2.33341 15.6666 5.30831 15.6666 9.00008C15.6666 12.6919 12.6917 15.6667 8.99996 15.6667C5.30819 15.6667 2.33329 12.6919 2.33329 9.00008C2.33329 5.30831 5.30819 2.33341 8.99996 2.33341ZM8.16663 4.83342V6.50008H9.83329V4.83342H8.16663ZM8.16663 8.16675V13.1667H9.83329V8.16675H8.16663Z" fill="#6B7278"/>
</svg>
