<svg width="24" height="24" viewBox="0 0 24 24" fill="none" xmlns="http://www.w3.org/2000/svg">
<path d="M16.7769 13.8335H8.16576C7.78222 13.8335 7.47131 14.0822 7.47131 14.389C7.47131 14.6959 7.78222 14.9446 8.16576 14.9446H16.7769C17.1604 14.9446 17.4713 14.6959 17.4713 14.389C17.4713 14.0822 17.1604 13.8335 16.7769 13.8335Z" fill="#2571F0"/>
<path d="M16.7769 15.9448H8.16576C7.78222 15.9448 7.47131 16.1935 7.47131 16.5004C7.47131 16.8072 7.78222 17.0559 8.16576 17.0559H16.7769C17.1604 17.0559 17.4713 16.8072 17.4713 16.5004C17.4713 16.1935 17.1604 15.9448 16.7769 15.9448Z" fill="#2571F0"/>
<path fill-rule="evenodd" clip-rule="evenodd" d="M7.47136 2.05615H6.49921C5.22831 2.08406 4.19629 3.09179 4.13818 4.36162V21.8888C4.17434 22.2275 4.38509 22.5225 4.69372 22.6666C5.0132 22.8077 5.38627 22.7419 5.63812 22.4999L7.33249 20.9721L9.36021 22.7776C9.51147 22.9179 9.70946 22.9971 9.91575 22.9999C10.121 22.9922 10.3174 22.9137 10.4713 22.7776L12.4712 20.9721L14.4711 22.7776C14.7875 23.0606 15.2659 23.0606 15.5822 22.7776L17.6099 20.9721L19.2765 22.4999C19.4783 22.7482 19.8281 22.8182 20.1098 22.6666C20.3858 22.5081 20.5475 22.2064 20.5265 21.8888V17.9445L20.5265 16.5279V4.36167C20.5265 3.13948 19.6654 2.05621 18.4432 2.05621H8.58244L7.47136 2.05615ZM18.1099 20L19.4154 21.2778V4.36167C19.4154 3.75057 19.0543 3.16728 18.4432 3.16728H6.49915C5.84079 3.19296 5.30477 3.70517 5.24921 4.36167V21.2778L6.69358 20C7.03018 19.6969 7.53766 19.6851 7.88797 19.9722L9.91569 21.7777L11.9156 19.9722C12.2404 19.7123 12.7019 19.7123 13.0267 19.9722L14.9988 21.7777L17.0266 19.9722C17.3358 19.687 17.8157 19.6993 18.1099 20Z" fill="#2571F0"/>
<path fill-rule="evenodd" clip-rule="evenodd" d="M13.7755 5.02598C13.9369 5.09288 14.0196 5.26954 13.9729 5.43364L13.9598 5.47123L12.8665 8.10839L14.6592 8.10846C14.7235 8.10846 14.7862 8.12664 14.8401 8.16042L14.8788 8.18865C15.0117 8.3006 15.0375 8.49239 14.9453 8.63442L14.9198 8.66881L11.5277 12.6937C11.432 12.8072 11.2738 12.8458 11.1367 12.7889C10.9752 12.722 10.8925 12.5454 10.9392 12.3813L10.9523 12.3437L12.0882 9.60193L10.3408 9.60218C10.2765 9.60218 10.2138 9.584 10.1599 9.55021L10.1212 9.52198C9.98833 9.41003 9.96249 9.21825 10.0547 9.07622L10.0802 9.04182L13.3844 5.12118C13.4801 5.00765 13.6383 4.96914 13.7755 5.02598Z" fill="#2571F0"/>
</svg>
