<svg width="20" height="20" viewBox="0 0 20 20" fill="none" xmlns="http://www.w3.org/2000/svg">
<g clip-path="url(#clip0_73_0)">
<path d="M16.7647 0H3.23529C1.45059 0 0 1.233 0 2.75V17.25C0 18.767 1.45059 20 3.23529 20H16.7647C18.5494 20 20 18.767 20 17.25V2.75C20 1.233 18.5494 0 16.7647 0ZM10.8333 13H5.58824C5.10118 13 4.70588 12.664 4.70588 12.25C4.70588 11.836 5.10118 11.5 5.58824 11.5H10.8333C11.3204 11.5 11.6667 11.836 11.6667 12.25C11.6667 12.664 11.3204 13 10.8333 13ZM14.4118 9.5H5.58824C5.10118 9.5 4.70588 9.164 4.70588 8.75C4.70588 8.336 5.10118 8 5.58824 8H14.4118C14.8988 8 15.2941 8.336 15.2941 8.75C15.2941 9.164 14.8988 9.5 14.4118 9.5ZM14.4118 5.5H5.58824C5.10118 5.5 4.70588 5.164 4.70588 4.75C4.70588 4.336 5.10118 4 5.58824 4H14.4118C14.8988 4 15.2941 4.336 15.2941 4.75C15.2941 5.164 14.8988 5.5 14.4118 5.5Z" fill="#2571F0"/>
</g>
<defs>
<clipPath id="clip0_73_0">
<rect width="20" height="20" fill="white"/>
</clipPath>
</defs>
</svg>
