<svg width="16" height="18" viewBox="0 0 16 18" fill="none" xmlns="http://www.w3.org/2000/svg">
<path d="M13.8333 2.49992H10.35C10 1.53325 9.08333 0.833252 8 0.833252C6.91667 0.833252 6 1.53325 5.65 2.49992H2.16667C1.25 2.49992 0.5 3.24992 0.5 4.16659V15.8333C0.5 16.7499 1.25 17.4999 2.16667 17.4999H13.8333C14.75 17.4999 15.5 16.7499 15.5 15.8333V4.16659C15.5 3.24992 14.75 2.49992 13.8333 2.49992ZM8 2.49992C8.45833 2.49992 8.83333 2.87492 8.83333 3.33325C8.83333 3.79159 8.45833 4.16659 8 4.16659C7.54167 4.16659 7.16667 3.79159 7.16667 3.33325C7.16667 2.87492 7.54167 2.49992 8 2.49992ZM9.66667 14.1666H3.83333V12.4999H9.66667V14.1666ZM12.1667 10.8333H3.83333V9.16658H12.1667V10.8333ZM12.1667 7.49992H3.83333V5.83325H12.1667V7.49992Z" fill="#2571F0"/>
</svg>
