<svg width="63" height="63" viewBox="0 0 63 63" fill="none" xmlns="http://www.w3.org/2000/svg">
<g clip-path="url(#clip0_304_564)">
<path d="M18.3772 49.731C8.28829 42.5938 5.86607 28.4572 13.0033 18.3683C20.1406 8.27941 34.2772 5.85718 44.3661 12.9945C54.455 20.1317 56.8772 34.2683 49.7399 44.3572C42.6026 54.4461 28.4661 56.8683 18.3772 49.731Z" fill="#EA4335"/>
<path d="M49.74 44.3571C56.8773 34.2683 54.4551 20.1317 44.3662 12.9944L18.3773 49.731C28.4662 56.8683 42.6028 54.446 49.74 44.3571Z" fill="#FA6D1D" fill-opacity="0.81"/>
<g clip-path="url(#clip1_304_564)">
<path d="M44.5467 31.4401L32.5467 19.4401C32.0667 18.9601 31.4001 18.6667 30.6667 18.6667H21.3334C19.8667 18.6667 18.6667 19.8667 18.6667 21.3334V30.6667C18.6667 31.4001 18.9601 32.0667 19.4534 32.5601L31.4534 44.5601C31.9334 45.0401 32.6001 45.3334 33.3334 45.3334C34.0667 45.3334 34.7334 45.0401 35.2134 44.5467L44.5467 35.2134C45.0401 34.7334 45.3334 34.0667 45.3334 33.3334C45.3334 32.6001 45.0267 31.9201 44.5467 31.4401ZM23.3334 25.3334C22.2267 25.3334 21.3334 24.4401 21.3334 23.3334C21.3334 22.2267 22.2267 21.3334 23.3334 21.3334C24.4401 21.3334 25.3334 22.2267 25.3334 23.3334C25.3334 24.4401 24.4401 25.3334 23.3334 25.3334Z" fill="white"/>
</g>
</g>
<defs>
<clipPath id="clip0_304_564">
<rect width="45" height="45" fill="white" transform="translate(25.9978) rotate(35.2771)"/>
</clipPath>
<clipPath id="clip1_304_564">
<rect width="32" height="32" fill="white" transform="translate(16 16)"/>
</clipPath>
</defs>
</svg>
