<svg width="24" height="24" viewBox="0 0 24 24" fill="none" xmlns="http://www.w3.org/2000/svg">
<g clip-path="url(#clip0_76_454)">
<g clip-path="url(#clip1_76_454)">
<path d="M16.5665 13.4488C16.0714 13.3161 15.6141 13.1073 15.2061 12.8427C15.0782 12.7567 14.9115 12.7508 14.7738 12.8304L13.9294 13.4539C12.936 12.6054 12.1445 11.2933 11.893 9.96206L12.8568 9.50425C12.9957 9.42067 13.0699 9.27234 13.0634 9.11961C13.0342 8.63297 13.0861 8.13354 13.2187 7.63851C13.2769 7.42117 13.1444 7.19153 12.927 7.1333L11.5345 6.76017C11.3171 6.70193 11.0297 6.72843 10.9488 7.03028C9.94693 10.7692 12.2255 14.7099 15.9604 15.7107C16.2462 15.7872 16.4268 15.5639 16.4861 15.3425L16.8581 13.954C16.9164 13.7367 16.7838 13.507 16.5665 13.4488Z" fill="#2571F0"/>
</g>
<path d="M18 1H8C6.9 1 6 1.9 6 3V6H8V4H18V20H8V18H6V21C6 22.1 6.9 23 8 23H18C19.1 23 20 22.1 20 21V3C20 1.9 19.1 1 18 1Z" fill="#2571F0"/>
<rect x="5" y="7" width="4" height="1" fill="#2571F0"/>
<rect x="5" y="10" width="4" height="1" fill="#2571F0"/>
<rect x="5" y="13" width="4" height="1" fill="#2571F0"/>
<rect x="5" y="16" width="4" height="1" fill="#2571F0"/>
<rect x="11" y="18" width="6" height="1" rx="0.5" fill="#2571F0"/>
</g>
<defs>
<clipPath id="clip0_76_454">
<rect width="24" height="24" fill="white"/>
</clipPath>
<clipPath id="clip1_76_454">
<rect width="10" height="10" fill="white" transform="translate(10.1716 5.10107) rotate(15)"/>
</clipPath>
</defs>
</svg>
