<svg width="14" height="14" viewBox="0 0 14 14" fill="none" xmlns="http://www.w3.org/2000/svg">
<path d="M7.00004 1.91659C7.96671 1.91659 8.75004 2.69992 8.75004 3.66658C8.75004 4.63325 7.96671 5.41658 7.00004 5.41658C6.03337 5.41658 5.25004 4.63325 5.25004 3.66658C5.25004 2.69992 6.03337 1.91659 7.00004 1.91659ZM7.00004 9.41658C9.47504 9.41658 12.0834 10.6333 12.0834 11.1666V12.0833H1.91671V11.1666C1.91671 10.6333 4.52504 9.41658 7.00004 9.41658ZM7.00004 0.333252C5.15837 0.333252 3.66671 1.82492 3.66671 3.66658C3.66671 5.50825 5.15837 6.99992 7.00004 6.99992C8.84171 6.99992 10.3334 5.50825 10.3334 3.66658C10.3334 1.82492 8.84171 0.333252 7.00004 0.333252ZM7.00004 7.83325C4.77504 7.83325 0.333374 8.94992 0.333374 11.1666V13.6666H13.6667V11.1666C13.6667 8.94992 9.22504 7.83325 7.00004 7.83325Z" fill="#2571F0"/>
</svg>
