<svg width="20" height="20" viewBox="0 0 20 20" fill="none" xmlns="http://www.w3.org/2000/svg">
<path d="M20 10C20 15.5228 15.5228 20 10 20C4.47715 20 0 15.5228 0 10C0 4.47715 4.47715 0 10 0C15.5228 0 20 4.47715 20 10ZM1.5 10C1.5 14.6944 5.30558 18.5 10 18.5C14.6944 18.5 18.5 14.6944 18.5 10C18.5 5.30558 14.6944 1.5 10 1.5C5.30558 1.5 1.5 5.30558 1.5 10Z" fill="#2571F0"/>
<path d="M15.84 17.557H14.4153C14.4153 15.1536 12.3993 13.1989 9.91964 13.1989C7.43995 13.1989 5.4247 15.1543 5.4247 17.557H4C4 14.3671 6.65636 11.7742 9.92036 11.7742C13.1836 11.7742 15.84 14.3671 15.84 17.557Z" fill="#2571F0"/>
<path d="M10.0594 10.12C8.37296 10.12 7 8.74649 7 7.06C6.99944 5.37296 8.3724 4 10.0594 4C11.747 4 13.12 5.3724 13.12 7.06C13.12 8.7476 11.747 10.12 10.0594 10.12ZM10.0594 5.11577C8.98719 5.11577 8.11521 5.98774 8.11521 7.06C8.11521 8.13225 8.98719 9.00423 10.0594 9.00423C11.1323 9.00423 12.0042 8.13225 12.0042 7.06C12.0042 5.98774 11.1311 5.11577 10.0594 5.11577Z" fill="#2571F0"/>
</svg>
