<svg width="24" height="24" viewBox="0 0 24 24" fill="none" xmlns="http://www.w3.org/2000/svg">
<g clip-path="url(#clip0_76_487)">
<path d="M3 5V9H5V5H9V3H5C3.9 3 3 3.9 3 5ZM5 15H3V19C3 20.1 3.9 21 5 21H9V19H5V15ZM19 19H15V21H19C20.1 21 21 20.1 21 19V15H19V19ZM19 3H15V5H19V9H21V5C21 3.9 20.1 3 19 3Z" fill="#2571F0"/>
<path d="M10.375 6H6.625C6.28125 6 6 6.28125 6 6.625V10.375C6 10.7188 6.28125 11 6.625 11H10.375C10.7188 11 11 10.7188 11 10.375V6.625C11 6.28125 10.7188 6 10.375 6ZM10.375 10.375H6.625V6.625H10.375V10.375Z" fill="#2571F0"/>
<path d="M10.375 13H6.625C6.28125 13 6 13.2812 6 13.625V17.375C6 17.7188 6.28125 18 6.625 18H10.375C10.7188 18 11 17.7188 11 17.375V13.625C11 13.2812 10.7188 13 10.375 13ZM10.375 17.375H6.625V13.625H10.375V17.375Z" fill="#2571F0"/>
<path d="M13.5556 16.3333H13V17.4444C13 17.75 13.25 18 13.5556 18H14.6667V17.4444H13.5556V16.3333ZM13.5556 13.5556H14.6667V13H13.5556C13.25 13 13 13.25 13 13.5556V14.6667H13.5556V13.5556ZM17.4444 13H16.3333V13.5556H17.4444V14.6667H18V13.5556C18 13.25 17.75 13 17.4444 13ZM17.4444 17.4444H16.3333V18H17.4444C17.75 18 18 17.75 18 17.4444V16.3333H17.4444V17.4444ZM15.5 14.6667C15.0389 14.6667 14.6667 15.0389 14.6667 15.5C14.6667 15.9611 15.0389 16.3333 15.5 16.3333C15.9611 16.3333 16.3333 15.9611 16.3333 15.5C16.3333 15.0389 15.9611 14.6667 15.5 14.6667Z" fill="#2571F0"/>
<path d="M17.375 6H13.625C13.2812 6 13 6.28125 13 6.625V10.375C13 10.7188 13.2812 11 13.625 11H17.375C17.7188 11 18 10.7188 18 10.375V6.625C18 6.28125 17.7188 6 17.375 6ZM17.375 10.375H13.625V6.625H17.375V10.375Z" fill="#2571F0"/>
</g>
<defs>
<clipPath id="clip0_76_487">
<rect width="24" height="24" fill="white"/>
</clipPath>
</defs>
</svg>
