<svg width="30" height="30" viewBox="0 0 30 30" fill="none" xmlns="http://www.w3.org/2000/svg">
<g clip-path="url(#clip0_29_342)">
<path d="M20.4024 22.9113L14.9118 23.515L9.47681 22.9113C12.0476 22.9113 12.9494 21.0709 13.1251 18.6359C13.1486 18.3135 13.1589 17.981 13.1589 17.6411V17.4111C13.7287 17.5337 14.3414 17.5995 14.9999 17.5995C15.635 17.5995 16.2277 17.5385 16.7806 17.4244V17.6411C16.7806 17.9852 16.7903 18.322 16.8132 18.648C16.9798 21.0769 17.8358 22.9113 20.4024 22.9113Z" fill="#FAD207"/>
<path d="M30.0001 7.12662C30.0001 11.6031 26.3579 15.2453 21.8814 15.2453H20.7043C21.2325 14.6991 21.6858 14.084 22.0752 13.4315C25.1591 13.3379 27.6931 11.0206 28.1247 8.03206H24.0146C24.142 7.37471 24.2319 6.76023 24.2953 6.22119H29.0947C29.5945 6.22119 30.0001 6.62683 30.0001 7.12662Z" fill="#FAD207"/>
<path d="M23.5764 13.2034C23.4291 13.4961 23.274 13.7786 23.1116 14.0503C22.8611 14.4704 22.5919 14.8663 22.3064 15.234C22.1657 15.2418 22.0239 15.2454 21.8814 15.2454H20.7043L20.8382 14.3783L22.0751 13.4315C22.0752 13.4315 23.0965 13.3374 23.5764 13.2034Z" fill="#FAD207"/>
<path d="M25.5103 6.22119C25.5048 6.26767 25.4994 6.31475 25.494 6.36244C25.4276 6.92501 25.3437 7.48578 25.2429 8.03205H24.0145L23.5684 7.12662L24.2951 6.22119H25.5103Z" fill="#FAD207"/>
<path d="M29.9999 7.12662C29.9999 11.4606 26.5858 15.0123 22.3062 15.2339C22.5917 14.8663 22.8609 14.4703 23.1114 14.0502C23.2738 13.7785 23.4289 13.496 23.5762 13.2033C25.9514 12.5399 27.7653 10.5184 28.1245 8.03206H25.2428C25.3436 7.48578 25.4275 6.92501 25.4939 6.36244C25.4993 6.31475 25.5047 6.26767 25.5102 6.22119H29.0945C29.5943 6.22119 29.9999 6.62683 29.9999 7.12662Z" fill="#FAD207"/>
<path d="M9.29577 15.2453H8.11871C3.64225 15.2453 0 11.6031 0 7.12662C0 6.62683 0.405634 6.22119 0.905433 6.22119H5.70483C5.76821 6.76023 5.85815 7.37471 5.98551 8.03206H1.87545C2.30704 11.0206 4.84105 13.3379 7.92495 13.4315C8.31429 14.084 8.76761 14.6991 9.29577 15.2453Z" fill="#FAD207"/>
<path d="M22.0966 22.4229H7.9046C7.42225 22.4229 7.03125 22.7368 7.03125 23.1241V24.4916C7.03125 24.8789 7.42225 25.1929 7.9046 25.1929H22.0966C22.5789 25.1929 22.9699 24.8789 22.9699 24.4916V23.1241C22.9699 22.7368 22.5789 22.4229 22.0966 22.4229Z" fill="#FAD207"/>
<path d="M24.4467 4.07861C24.4467 4.07861 24.4467 4.53737 24.3875 5.28586C24.3658 5.56111 24.3356 5.8762 24.2952 6.22147C24.2318 6.7605 24.1419 7.37499 24.0145 8.03234C23.6837 9.72912 23.1018 11.712 22.0751 13.4317C21.6857 14.0842 21.2324 14.6993 20.7042 15.2456C19.6938 16.2911 18.4105 17.0879 16.7807 17.4247C16.2278 17.5388 15.635 17.5997 15 17.5997C14.3415 17.5997 13.7288 17.5339 13.159 17.4114C11.5582 17.0686 10.2942 16.2784 9.2958 15.2456C8.76763 14.6993 8.31431 14.0842 7.92497 13.4317C6.89821 11.712 6.31632 9.72912 5.98554 8.03234C5.85817 7.37499 5.76823 6.7605 5.70485 6.22147C5.66441 5.8762 5.63423 5.56111 5.6125 5.28586C5.55334 4.53737 5.55334 4.07861 5.55334 4.07861H24.4467Z" fill="#FAD207"/>
<path d="M24.4467 4.07847L14.5 4L6.76059 4.07847H5.55334C5.55334 4.07847 5.55334 4.53723 5.6125 5.28572C5.63423 5.56097 5.66441 5.87606 5.70485 6.22133C5.76823 6.76036 5.85817 7.37485 5.98554 8.03219C6.31632 9.72897 6.89821 11.7119 7.92497 13.4316C8.31431 14.0841 8.76763 14.6992 9.2958 15.2455C10.2942 16.2783 11.5582 17.0684 13.159 17.4113C13.7288 17.5338 14.3415 17.5996 15 17.5996C15.2053 17.5996 15.4057 17.5936 15.6018 17.5809C15.169 17.5531 14.7574 17.4952 14.3662 17.4113C12.7654 17.0684 11.5014 16.2783 10.503 15.2455C9.97487 14.6992 9.52155 14.0841 9.13222 13.4316C8.10546 11.7119 7.52357 9.72897 7.19278 8.03219C7.06542 7.37485 6.97548 6.76036 6.9121 6.22133C6.91167 6.21789 6.91131 6.21445 6.91089 6.21101C6.85336 5.71803 7.23992 5.28572 7.73622 5.28572H24.3875C24.4467 4.53723 24.4467 4.07847 24.4467 4.07847Z" fill="#FAA515"/>
<path d="M5.52312 1H24.4768C25.3269 1 26.0161 1.68915 26.0161 2.53924C26.0161 3.38932 25.3269 4.07847 24.4768 4.07847H5.52312C4.67304 4.07847 3.98389 3.38932 3.98389 2.53924C3.98389 1.68915 4.67304 1 5.52312 1Z" fill="#FAD207"/>
</g>
<defs>
<clipPath id="clip0_29_342">
<rect width="30" height="30" fill="white"/>
</clipPath>
</defs>
</svg>
