<svg width="63" height="63" viewBox="0 0 63 63" fill="none" xmlns="http://www.w3.org/2000/svg">
<g clip-path="url(#clip0_304_547)">
<path d="M18.3794 49.731C8.29049 42.5938 5.86826 28.4572 13.0055 18.3683C20.1428 8.27941 34.2794 5.85718 44.3683 12.9945C54.4572 20.1317 56.8794 34.2683 49.7421 44.3572C42.6048 54.4461 28.4683 56.8683 18.3794 49.731Z" fill="#FAD207"/>
<path d="M49.7422 44.3571C56.8795 34.2683 54.4573 20.1317 44.3684 12.9944L18.3795 49.731C28.4684 56.8683 42.605 54.446 49.7422 44.3571Z" fill="#FAA515"/>
<g clip-path="url(#clip1_304_547)">
<path d="M36.4024 41.9113L30.9118 42.515L25.4768 41.9113C28.0476 41.9113 28.9494 40.0709 29.1251 37.6359C29.1486 37.3135 29.1589 36.981 29.1589 36.6411V36.4111C29.7287 36.5337 30.3414 36.5995 30.9999 36.5995C31.635 36.5995 32.2277 36.5385 32.7806 36.4244V36.6411C32.7806 36.9852 32.7903 37.322 32.8132 37.648C32.9798 40.0769 33.8358 41.9113 36.4024 41.9113Z" fill="white"/>
<path d="M46.0001 26.1266C46.0001 30.6031 42.3579 34.2453 37.8814 34.2453H36.7043C37.2325 33.6991 37.6858 33.084 38.0752 32.4315C41.1591 32.3379 43.6931 30.0206 44.1247 27.0321H40.0146C40.142 26.3747 40.2319 25.7602 40.2953 25.2212H45.0947C45.5945 25.2212 46.0001 25.6268 46.0001 26.1266V26.1266Z" fill="#FAD207"/>
<path d="M39.5764 32.2034C39.4291 32.4961 39.274 32.7786 39.1116 33.0503C38.8611 33.4704 38.5919 33.8663 38.3064 34.234C38.1657 34.2418 38.0239 34.2454 37.8814 34.2454H36.7043L36.8382 33.3783L38.0751 32.4315C38.0752 32.4315 39.0965 32.3374 39.5764 32.2034Z" fill="white"/>
<path d="M41.5103 25.2212C41.5048 25.2677 41.4994 25.3148 41.494 25.3624C41.4276 25.925 41.3437 26.4858 41.2429 27.0321H40.0145L39.5684 26.1266L40.2951 25.2212H41.5103Z" fill="white"/>
<path d="M45.9999 26.1266C45.9999 30.4606 42.5858 34.0123 38.3062 34.2339C38.5917 33.8663 38.8609 33.4703 39.1114 33.0502C39.2738 32.7785 39.4289 32.496 39.5762 32.2033C41.9514 31.5399 43.7653 29.5184 44.1245 27.0321H41.2428C41.3436 26.4858 41.4275 25.925 41.4939 25.3624C41.4993 25.3148 41.5047 25.2677 41.5102 25.2212H45.0945C45.5943 25.2212 45.9999 25.6268 45.9999 26.1266V26.1266Z" fill="white"/>
<path d="M25.2958 34.2453H24.1187C19.6423 34.2453 16 30.6031 16 26.1266C16 25.6268 16.4056 25.2212 16.9054 25.2212H21.7048C21.7682 25.7602 21.8581 26.3747 21.9855 27.0321H17.8755C18.307 30.0206 20.841 32.3379 23.9249 32.4315C24.3143 33.084 24.7676 33.6991 25.2958 34.2453V34.2453Z" fill="white"/>
<path d="M38.0966 41.4229H23.9046C23.4222 41.4229 23.0312 41.7368 23.0312 42.1241V43.4916C23.0312 43.8789 23.4222 44.1929 23.9046 44.1929H38.0966C38.5789 44.1929 38.9699 43.8789 38.9699 43.4916V42.1241C38.9699 41.7368 38.5789 41.4229 38.0966 41.4229Z" fill="white"/>
<path d="M40.4466 23.0786C40.4466 23.0786 40.4466 23.5374 40.3874 24.2859C40.3657 24.5611 40.3355 24.8762 40.2951 25.2215C40.2317 25.7605 40.1418 26.375 40.0144 27.0323C39.6836 28.7291 39.1017 30.712 38.075 32.4317C37.6856 33.0842 37.2323 33.6993 36.7041 34.2456C35.6937 35.2911 34.4104 36.0879 32.7806 36.4247C32.2277 36.5388 31.6349 36.5997 30.9999 36.5997C30.3414 36.5997 29.7287 36.5339 29.1589 36.4114C27.5581 36.0686 26.2941 35.2784 25.2957 34.2456C24.7675 33.6993 24.3142 33.0842 23.9249 32.4317C22.8981 30.712 22.3162 28.7291 21.9854 27.0323C21.8581 26.375 21.7681 25.7605 21.7047 25.2215C21.6643 24.8762 21.6341 24.5611 21.6124 24.2859C21.5532 23.5374 21.5532 23.0786 21.5532 23.0786H40.4466Z" fill="white"/>
<path d="M40.4466 23.0785L30.4999 23L22.7605 23.0785H21.5532C21.5532 23.0785 21.5532 23.5372 21.6124 24.2857C21.6341 24.561 21.6643 24.8761 21.7047 25.2213C21.7681 25.7604 21.8581 26.3748 21.9854 27.0322C22.3162 28.729 22.8981 30.7119 23.9249 32.4316C24.3142 33.0841 24.7675 33.6992 25.2957 34.2455C26.2941 35.2783 27.5581 36.0684 29.1589 36.4113C29.7287 36.5338 30.3414 36.5996 30.9999 36.5996C31.2051 36.5996 31.4055 36.5936 31.6017 36.5809C31.1689 36.5531 30.7572 36.4952 30.3661 36.4113C28.7653 36.0684 27.5013 35.2783 26.5029 34.2455C25.9748 33.6992 25.5214 33.0841 25.1321 32.4316C24.1053 30.7119 23.5234 28.729 23.1927 27.0322C23.0653 26.3748 22.9754 25.7604 22.912 25.2213C22.9116 25.2179 22.9112 25.2144 22.9108 25.211C22.8532 24.718 23.2398 24.2857 23.7361 24.2857H40.3874C40.4466 23.5372 40.4466 23.0785 40.4466 23.0785Z" fill="white"/>
<path d="M21.5231 19H40.4768C41.3269 19 42.0161 19.6892 42.0161 20.5392C42.0161 21.3893 41.3269 22.0785 40.4768 22.0785H21.5231C20.673 22.0785 19.9839 21.3893 19.9839 20.5392C19.9839 19.6892 20.673 19 21.5231 19Z" fill="white"/>
</g>
</g>
<defs>
<clipPath id="clip0_304_547">
<rect width="45" height="45" fill="white" transform="translate(26) rotate(35.2771)"/>
</clipPath>
<clipPath id="clip1_304_547">
<rect width="30" height="30" fill="white" transform="translate(16 19)"/>
</clipPath>
</defs>
</svg>
