<svg width="39" height="24" viewBox="0 0 39 24" fill="none" xmlns="http://www.w3.org/2000/svg">
<g clip-path="url(#clip0_76_436)">
<path d="M12 12C14.21 12 16 10.21 16 8C16 5.79 14.21 4 12 4C9.79 4 8 5.79 8 8C8 10.21 9.79 12 12 12ZM12 14C9.33 14 4 15.34 4 18V20H20V18C20 15.34 14.67 14 12 14Z" fill="#2571F0"/>
</g>
<g clip-path="url(#clip1_76_436)">
<path d="M31 17.01V10H29V17.01H26L30 21L34 17.01H31ZM24 3L20 6.99H23V14H25V6.99H28L24 3Z" fill="#2571F0"/>
</g>
<defs>
<clipPath id="clip0_76_436">
<rect width="24" height="24" fill="white"/>
</clipPath>
<clipPath id="clip1_76_436">
<rect width="24" height="24" fill="white" transform="translate(15)"/>
</clipPath>
</defs>
</svg>
